<svg xmlns="http://www.w3.org/2000/svg" viewBox="0 0 480 480"><defs><style>.cls-1{fill:#fff;}.cls-2{fill:#ff0068;}.cls-3{fill:#6b0036;}</style></defs><title>Asset 7</title><g id="Layer_2" data-name="Layer 2"><g id="Layer_1-2" data-name="Layer 1"><rect class="cls-1" width="480" height="480"/><path class="cls-2" d="M167.05,440.38a37.41,37.41,0,0,1-32.53-19l-.35-.63-.71.14a195,195,0,0,1-37.36,4c-28.57,0-49.64-8.58-60.94-24.82-25-35.95,2.29-100.44,71.29-169.15-8.47,19.21-8.06,50.9,4.67,72.19L86.9,281.93l-.65.83c-36,45.95-49.07,85.57-34.88,106,7.55,10.85,23,16.59,44.72,16.59A175.15,175.15,0,0,0,129,401.82l.77-.14,0-.78a37.21,37.21,0,0,1,18.71-30.31l.63-.36-.15-.71a646.81,646.81,0,0,1-10.71-73.58c-3.61-40.87-3.46-80.21.44-116.93l.08-.73-.68-.3a37.36,37.36,0,0,1,10.46-71.47c1.22-.14,2.48-.22,3.72-.24H153l.21-.69c15.44-49.34,39.84-77.91,68.69-80.46,1.41-.13,2.83-.19,4.24-.19,21.06,0,42.23,14,61.23,40.45,18.3,25.49,34.13,61.93,45.94,105.67-11.89-16-38.49-31.89-63.62-31.89l-1.3,0,30.31-10.5-.4-1c-21.13-52-48.12-83-72.2-83-.82,0-1.65,0-2.46.11-20.08,1.77-38.87,25.81-51.57,65.95l-.24.75.66.41a37.2,37.2,0,0,1,17.43,27.49c0,.21,0,.42.05.63l.09,1,.64.2a646.14,646.14,0,0,1,69,25.85c39.73,17.48,77.27,38.64,108.54,61.17l.62.45.59-.48a37.32,37.32,0,0,1,19.08-7.94,38.69,38.69,0,0,1,4.29-.24,37.37,37.37,0,0,1,32,56.65l-.39.63.5.55c31.53,35,42.85,68,31.86,93-11.18,25.42-43.95,39.42-92.24,39.42h0c-26.39,0-56.38-4.05-89.24-12.06,21-2.76,47.61-19.52,59.14-41.58L329,388.26l1.05.12a296.79,296.79,0,0,0,34.24,2.13c40.13,0,66.54-9.81,74.38-27.62,7.71-17.53-2.28-43-28.14-71.76l-.51-.57-.68.34a37.25,37.25,0,0,1-12.32,3.62,36.18,36.18,0,0,1-4.29.25,37.33,37.33,0,0,1-18.62-5l-.62-.36-.54.48a641.63,641.63,0,0,1-61.21,48.22c-35,24.35-72,45.08-106.92,59.95l-.68.28.08.74a37.48,37.48,0,0,1-32.92,41.05A38.39,38.39,0,0,1,167.05,440.38ZM185.9,161a37.55,37.55,0,0,1-27,19.5l-.75.13-.08.75c-3.74,35.32-3.87,73.28-.37,112.85a627.63,627.63,0,0,0,10.23,70.66l.16.76.77,0a37.38,37.38,0,0,1,27.44,14l.47.59.7-.3c33.6-14.3,69.28-34.32,103.16-57.9a623,623,0,0,0,58.8-46.25l.58-.52-.35-.69a37.37,37.37,0,0,1-2.23-29.3l.24-.7-.6-.43c-30.15-21.77-66.53-42.27-105.19-59.28a629.13,629.13,0,0,0-64.79-24.42l-.8-.25Z"/><path class="cls-3" d="M226.16,25.92c20.72,0,41.62,13.84,60.42,40,17.58,24.49,32.88,59.13,44.51,100.69a84,84,0,0,0-20.45-16.44c-11.86-6.93-24.72-11.09-36.67-11.9L298.05,130l2-.69-.79-2C289,102.05,277,81,264.58,66.58c-12.85-15-26.15-22.9-38.46-22.9-.85,0-1.71,0-2.55.11-10.42.92-20.33,7.35-29.46,19.11-8.89,11.47-16.62,27.46-23,47.54l-.46,1.49,1.31.82a36.16,36.16,0,0,1,17,26.76c0,.19,0,.39.06.58l0,.35.12,1.34,1.28.4A644.9,644.9,0,0,1,259.33,168c39.67,17.45,77.14,38.57,108.35,61.07l1.24.88,1.18-.95A36.36,36.36,0,0,1,424,276.16l-.77,1.27,1,1.1C439.9,296,450.6,312.8,456,328.55c5.32,15.56,5.28,29.65-.11,41.89C450.35,383,439.64,392.67,424,399.29s-35.62,10-59.49,10c-25.06,0-53.38-3.67-84.34-10.92,18.76-4.13,40.55-18.11,52.33-36.46l-4.3,25.17-.35,2.08,2.09.25a298.79,298.79,0,0,0,34.36,2.13c40.55,0,67.29-10,75.29-28.22,7.88-17.91-2.17-43.78-28.31-72.83l-1-1.13-1.36.67a36.34,36.34,0,0,1-34.29-1.1l-1.25-.72-1.08,1a640.86,640.86,0,0,1-61.11,48.15c-34.94,24.31-71.85,45-106.74,59.85l-1.37.57.16,1.48a36.37,36.37,0,0,1-67.86,21.66l-.71-1.26-1.42.28a193.75,193.75,0,0,1-37.16,4c-28.23,0-49-8.43-60.12-24.39-12.27-17.64-11.85-42.87,1.23-72.95,12.25-28.19,35.17-59.67,66.58-91.53a86,86,0,0,0-4,31,83.18,83.18,0,0,0,7.78,32.67L88.35,281.87l-1.59-1.39-1.3,1.66c-36.32,46.32-49.37,86.38-34.91,107.17,7.75,11.13,23.49,17,45.54,17a176.27,176.27,0,0,0,33.08-3.52l1.53-.3.09-1.56A36.23,36.23,0,0,1,149,371.45l1.26-.72-.3-1.41a647.28,647.28,0,0,1-10.69-73.46c-3.61-40.81-3.46-80.09.44-116.74l.15-1.47-1.35-.58a36.38,36.38,0,0,1,13.8-69.8l1.44,0,.44-1.38c7.68-24.55,17.51-43.92,29.2-57.58C194.93,34.81,207.92,27.35,222,26.1c1.37-.12,2.77-.18,4.15-.18m-29.69,355.6,1.39-.6c33.67-14.33,69.4-34.38,103.35-58A624.93,624.93,0,0,0,360.1,276.6l1.16-1-.72-1.38a36.34,36.34,0,0,1-2.16-28.51l.48-1.4-1.2-.87C327.45,221.59,291,201.05,252.28,184a632.71,632.71,0,0,0-64.9-24.46l-1.59-.49-.77,1.47a36.59,36.59,0,0,1-26.28,19l-1.5.24-.16,1.52c-3.75,35.38-3.88,73.41-.38,113A629.42,629.42,0,0,0,167,365.09l.31,1.52,1.56.07a36.36,36.36,0,0,1,26.7,13.65l.95,1.19m29.69-357.6c-1.44,0-2.88.06-4.33.19-29.4,2.6-54,31.35-69.55,81.16a37.87,37.87,0,0,0-3.82.25,38.36,38.36,0,0,0-10.74,73.38c-3.86,36.24-4.07,76.14-.45,117.13A648.74,648.74,0,0,0,148,369.72a38.43,38.43,0,0,0-19.21,31.12,173.56,173.56,0,0,1-32.7,3.49c-21.16,0-36.45-5.46-43.9-16.16C38,367.83,52.19,327.82,87,283.37l29.74,26c-19.46-23.17-18.47-64.86-6.4-83.73-72.77,70.77-101.9,137.81-76,175C46,417.31,67.27,425.84,96.1,425.84a195.59,195.59,0,0,0,37.55-4A38.37,38.37,0,0,0,205.24,399c35-14.87,71.56-35.32,107.1-60.05a643.62,643.62,0,0,0,61.3-48.29,38.38,38.38,0,0,0,36.18,1.15c25.34,28.18,35.51,53.54,28,70.69-7.82,17.78-35,27-73.46,27a294.76,294.76,0,0,1-34.13-2.12l6.65-38.92c-9.52,28.38-44.93,49.12-67.38,49.12h-.73c35.83,9.18,68.22,13.67,95.8,13.67,48.11,0,81.58-13.67,93.16-40,11.26-25.58-.11-58.64-32-94.05A38.36,38.36,0,0,0,392.85,219a38.42,38.42,0,0,0-24,8.4c-31.25-22.52-68.38-43.52-108.72-61.27A648.3,648.3,0,0,0,191,140.26c0-.32-.05-.65-.09-1A38.26,38.26,0,0,0,173,111.05c12.61-39.85,30.9-63.52,50.71-65.27.78-.07,1.58-.1,2.37-.1,24.07,0,50.69,31.74,71.28,82.39L260.09,141a54,54,0,0,1,9.62-.84c27.43,0,57,19.12,66.23,36.87-24.47-95.16-66.23-153.1-109.78-153.1ZM197.08,379.08a38.4,38.4,0,0,0-28.17-14.4,627.21,627.21,0,0,1-10.22-70.54c-3.49-39.55-3.31-77.93.37-112.65a38.35,38.35,0,0,0,27.73-20,630,630,0,0,1,64.68,24.38c39.12,17.21,75,37.5,105,59.18a38.39,38.39,0,0,0,2.28,30.08,623.89,623.89,0,0,1-58.71,46.18c-34.3,23.87-69.5,43.55-103,57.8Z"/><path class="cls-2" d="M241.06,315.31a47.23,47.23,0,1,1,5.42-.31,49.24,49.24,0,0,1-5.42.31Z"/><path class="cls-3" d="M241.18,221.91A46.19,46.19,0,0,1,246.37,314a47.27,47.27,0,0,1-5.31.31,46.2,46.2,0,0,1-5.18-92.1,47.08,47.08,0,0,1,5.3-.3m0-2a47.1,47.1,0,0,0-5.53.32,48.2,48.2,0,0,0,5.41,96.08,49.41,49.41,0,0,0,5.54-.32,48.2,48.2,0,0,0-5.42-96.08Z"/></g></g></svg>